<svg width="574" height="508" viewBox="0 0 574 508" fill="none" xmlns="http://www.w3.org/2000/svg">
<path d="M460.917 305.754H464.379V298.816H471.038V295.889H464.379V291.887H471.757V288.959H460.917V305.754Z" fill="white"/>
<path d="M474.022 305.754H477.427V293.158H474.022V305.754ZM475.733 291.534C476.748 291.534 477.579 290.739 477.579 289.763C477.579 288.795 476.748 288 475.733 288C474.725 288 473.894 288.795 473.894 289.763C473.894 290.739 474.725 291.534 475.733 291.534Z" fill="white"/>
<path d="M483.561 288.959H480.155V305.754H483.561V288.959Z" fill="white"/>
<path d="M486.289 305.754H489.695V298.193C489.695 296.799 490.558 295.872 491.693 295.872C492.812 295.872 493.564 296.66 493.564 297.898V305.754H496.866V298.062C496.866 296.758 497.593 295.872 498.832 295.872C499.919 295.872 500.735 296.569 500.735 297.972V305.754H504.132V297.283C504.132 294.552 502.55 292.994 500.263 292.994C498.464 292.994 497.065 293.937 496.562 295.38H496.434C496.042 293.921 494.787 292.994 493.1 292.994C491.445 292.994 490.19 293.896 489.679 295.38H489.535V293.158H486.289V305.754Z" fill="white"/>
<path d="M506.822 305.754H510.228V298.193C510.228 296.799 511.091 295.872 512.227 295.872C513.346 295.872 514.097 296.66 514.097 297.898V305.754H517.399V298.062C517.399 296.758 518.126 295.872 519.366 295.872C520.453 295.872 521.268 296.569 521.268 297.972V305.754H524.666V297.283C524.666 294.552 523.083 292.994 520.797 292.994C518.998 292.994 517.599 293.937 517.095 295.38H516.967C516.576 293.921 515.32 292.994 513.634 292.994C511.979 292.994 510.724 293.896 510.212 295.38H510.068V293.158H506.822V305.754Z" fill="white"/>
<path d="M530.857 305.992C532.672 305.992 533.847 305.18 534.447 304.007H534.543V305.754H537.773V297.258C537.773 294.257 535.294 292.994 532.56 292.994C529.618 292.994 527.684 294.437 527.212 296.733L530.362 296.996C530.594 296.159 531.321 295.544 532.544 295.544C533.703 295.544 534.367 296.143 534.367 297.176V297.226C534.367 298.037 533.528 298.144 531.393 298.357C528.963 298.587 526.78 299.423 526.78 302.236C526.78 304.729 528.515 305.992 530.857 305.992ZM531.833 303.581C530.786 303.581 530.034 303.081 530.034 302.121C530.034 301.137 530.826 300.653 532.025 300.481C532.768 300.374 533.983 300.194 534.391 299.915V301.252C534.391 302.572 533.328 303.581 531.833 303.581Z" fill="white"/>
<path d="M540.415 305.754H543.82V301.752L544.74 300.678L548.089 305.754H552.078L547.29 298.611L551.847 293.158H547.937L544.004 297.939H543.82V288.959H540.415V305.754Z" fill="white"/>
<path d="M558.608 306C561.646 306 563.692 304.483 564.172 302.146L561.022 301.933C560.678 302.892 559.799 303.392 558.664 303.392C556.961 303.392 555.882 302.236 555.882 300.358V300.35H564.244V299.39C564.244 295.11 561.718 292.994 558.472 292.994C554.858 292.994 552.516 295.626 552.516 299.513C552.516 303.507 554.826 306 558.608 306ZM555.882 298.185C555.954 296.75 557.017 295.602 558.528 295.602C560.007 295.602 561.03 296.684 561.038 298.185H555.882Z" fill="white"/>
<path d="M566.466 305.754H569.872V298.628C569.872 297.078 570.975 296.012 572.478 296.012C572.95 296.012 573.597 296.094 573.917 296.2V293.101C573.613 293.027 573.19 292.978 572.846 292.978C571.471 292.978 570.344 293.798 569.896 295.356H569.768V293.158H566.466V305.754Z" fill="white"/>
<path d="M460.917 241.795H464.379V234.841H471.038V231.907H464.379V227.896H471.758V224.962H460.917V241.795Z" fill="white"/>
<path d="M474.022 241.795H477.428V229.17H474.022V241.795ZM475.733 227.542C476.748 227.542 477.58 226.745 477.58 225.767C477.58 224.797 476.748 224 475.733 224C474.726 224 473.894 224.797 473.894 225.767C473.894 226.745 474.726 227.542 475.733 227.542Z" fill="white"/>
<path d="M483.562 224.962H480.156V241.795H483.562V224.962Z" fill="white"/>
<path d="M486.29 241.795H489.696V234.216C489.696 232.819 490.559 231.89 491.694 231.89C492.813 231.89 493.565 232.679 493.565 233.921V241.795H496.867V234.085C496.867 232.778 497.594 231.89 498.833 231.89C499.921 231.89 500.736 232.589 500.736 233.995V241.795H504.134V233.304C504.134 230.567 502.551 229.005 500.264 229.005C498.466 229.005 497.067 229.951 496.563 231.397H496.435C496.043 229.934 494.788 229.005 493.101 229.005C491.446 229.005 490.191 229.91 489.68 231.397H489.536V229.17H486.29V241.795Z" fill="white"/>
<path d="M510.23 234.496C510.238 232.868 511.205 231.915 512.596 231.915C513.979 231.915 514.795 232.827 514.787 234.381V241.795H518.192V233.756C518.2 230.797 516.506 229.005 513.947 229.005C512.084 229.005 510.837 229.91 510.278 231.397H510.134V224.962H506.824V241.795H510.23V234.496Z" fill="white"/>
<path d="M528.747 236.419C528.755 238.112 527.628 239 526.405 239C525.118 239 524.286 238.071 524.278 236.584V229.17H520.873V237.208C520.881 240.159 522.559 241.959 525.03 241.959C526.877 241.959 528.204 240.981 528.755 239.501H528.883V241.795H532.153V229.17H528.747V236.419Z" fill="white"/>
<path d="M534.941 241.795H538.299V239.773H538.451C538.922 240.825 539.954 242 541.936 242C544.734 242 546.917 239.723 546.917 235.499C546.917 231.159 544.639 229.005 541.944 229.005C539.89 229.005 538.906 230.263 538.451 231.29H538.347V224.962H534.941V241.795ZM538.275 235.482C538.275 233.23 539.202 231.792 540.857 231.792C542.544 231.792 543.439 233.296 543.439 235.482C543.439 237.685 542.528 239.214 540.857 239.214C539.218 239.214 538.275 237.734 538.275 235.482Z" fill="white"/>
<path d="M523.917 206H460.917" stroke="#2563EB" stroke-width="4" stroke-linecap="round"/>
<path d="M524.917 270H460.917" stroke="#B20ECA" stroke-width="4" stroke-linecap="round"/>
<path d="M205.917 268L219.602 293.699V305.487H229.647V293.699L243.331 268H232.049L224.77 283.229H224.479L217.2 268H205.917Z" fill="#B20ECA"/>
<path d="M253.185 306C262.284 306 267.671 300.143 267.671 291.503C267.671 282.863 262.284 277.006 253.185 277.006C244.087 277.006 238.7 282.863 238.7 291.503C238.7 300.143 244.087 306 253.185 306ZM253.258 298.532C250.565 298.532 248.964 295.841 248.964 291.43C248.964 287.018 250.565 284.328 253.258 284.328C255.806 284.328 257.407 287.018 257.407 291.43C257.407 295.841 255.806 298.532 253.258 298.532Z" fill="#B20ECA"/>
<path d="M289.872 293.187C289.89 295.969 288.289 297.653 285.796 297.653C283.266 297.653 281.81 295.969 281.792 293.187V277.372H271.747V295.31C271.765 301.46 275.623 305.854 281.501 305.854C285.668 305.854 288.871 303.73 290.09 300.143H290.381V305.487H299.917V277.372H289.872V293.187Z" fill="#B20ECA"/>
<path d="M207.342 254.495C217.392 254.495 224.767 249.226 224.767 242.285C224.767 236.995 220.451 232.751 215.123 231.915V231.58C219.763 230.744 223.227 226.918 223.227 222.13C223.227 215.44 216.5 210.505 207.342 210.505C198.184 210.505 191.457 215.419 191.457 222.13C191.457 226.897 194.841 230.744 199.562 231.58V231.915C194.152 232.751 189.917 236.995 189.917 242.285C189.917 249.226 197.292 254.495 207.342 254.495ZM207.342 246.466C204.161 246.466 201.831 244.25 201.831 241.281C201.831 238.312 204.161 236.18 207.342 236.18C210.523 236.18 212.853 238.333 212.853 241.281C212.853 244.271 210.523 246.466 207.342 246.466ZM207.342 228.151C204.526 228.151 202.479 226.144 202.479 223.468C202.479 220.792 204.526 218.868 207.342 218.868C210.158 218.868 212.205 220.813 212.205 223.468C212.205 226.165 210.158 228.151 207.342 228.151Z" fill="white"/>
<path d="M247.871 255.08C259.156 255.101 266.167 246.759 266.187 232.584C266.207 218.492 259.156 210.505 247.871 210.505C236.565 210.505 229.595 218.45 229.554 232.584C229.513 246.696 236.565 255.059 247.871 255.08ZM247.871 245.63C243.98 245.63 241.184 241.595 241.225 232.584C241.265 223.782 243.98 219.872 247.871 219.872C251.761 219.872 254.496 223.782 254.516 232.584C254.537 241.595 251.761 245.63 247.871 245.63Z" fill="white"/>
<path d="M295.222 245.881C295.263 251.317 298.667 256 305.029 256C311.391 256 314.957 251.317 314.917 245.881V243.623C314.957 238.103 311.472 233.504 305.029 233.504C298.748 233.504 295.263 238.187 295.222 243.623V245.881ZM273.502 221.377C273.542 226.813 276.946 231.413 283.308 231.413C289.671 231.413 293.237 226.897 293.196 221.377V219.119C293.237 213.6 289.752 209 283.308 209C277.108 209 273.542 213.6 273.502 219.119V221.377ZM275.771 253.909H281.525L310.054 211.091H304.299L275.771 253.909ZM302.273 243.623C302.314 241.95 302.881 240.027 305.029 240.027C307.339 240.027 307.825 241.95 307.785 243.623V245.881C307.825 247.553 307.258 249.393 305.029 249.393C302.881 249.393 302.314 247.47 302.273 245.881V243.623ZM280.634 219.119C280.674 217.53 281.161 215.523 283.308 215.523C285.618 215.523 286.104 217.447 286.064 219.119V221.377C286.104 223.05 285.537 224.89 283.308 224.89C281.242 224.89 280.674 223.05 280.634 221.377V219.119Z" fill="white"/>
<path opacity="0.56" d="M395.887 337.947C349.524 416.355 248.378 442.332 169.97 395.97C91.5617 349.607 65.5842 248.46 111.947 170.052C158.31 91.6442 259.457 65.6666 337.865 112.03C416.272 158.392 442.25 259.539 395.887 337.947ZM116.658 172.837C71.8329 248.644 96.9486 346.434 172.755 391.259C248.561 436.084 346.352 410.968 391.177 335.162C436.001 259.355 410.886 161.565 335.079 116.74C259.273 71.9153 161.482 97.031 116.658 172.837Z" stroke="url(#paint0_linear)" stroke-width="40"/>
<path d="M416.869 260C416.984 256.101 416.961 252.192 416.797 248.281C415.739 222.965 408.846 198.235 396.657 176.021C384.469 153.806 367.313 134.708 346.528 120.215C333.537 111.158 319.349 104.052 304.417 99.079" stroke="url(#paint1_linear)" stroke-width="44" stroke-linecap="round"/>
<defs>
<linearGradient id="paint0_linear" x1="386.917" y1="195" x2="629.417" y2="772" gradientUnits="userSpaceOnUse">
<stop stop-color="#B20ECA"/>
<stop offset="1" stop-color="#B20ECA" stop-opacity="0"/>
</linearGradient>
<linearGradient id="paint1_linear" x1="317.917" y1="108" x2="443.917" y2="349" gradientUnits="userSpaceOnUse">
<stop stop-color="#2563EB"/>
<stop offset="1" stop-color="#2563EB" stop-opacity="0"/>
</linearGradient>
</defs>
</svg>
