<svg width="73" height="73" viewBox="0 0 73 73" fill="none" xmlns="http://www.w3.org/2000/svg">
<rect width="73" height="73" rx="22" fill="url(#paint0_linear)"/>
<path d="M37.5403 30.196H48.4123L53.5963 27.028C54.0283 26.776 54.0643 26.164 53.6683 25.84L48.4123 21.808H37.5043V20.44C37.5043 19.936 37.1083 19.54 36.6043 19.54C36.1003 19.54 35.7043 19.936 35.7043 20.44V21.808H26.4883C25.9843 21.808 25.5883 22.204 25.5883 22.708V29.296C25.5883 29.8 25.9843 30.196 26.4883 30.196H35.7043V32.608L25.8043 32.644L20.6203 35.812C20.1883 36.064 20.1523 36.676 20.5483 37L25.8043 41.032H35.7043V53.632C35.7043 54.136 36.1003 54.532 36.6043 54.532C37.1083 54.532 37.5043 54.136 37.5043 53.632V41.032H47.6203C48.1243 41.032 48.5203 40.636 48.5203 40.132V33.508C48.5203 33.004 48.1243 32.608 47.6203 32.608L37.5043 32.644V30.196H37.5403ZM27.4243 23.608H47.8003L51.3283 26.308L47.9083 28.396H27.4243V23.608ZM46.7203 39.232H26.4163L22.8883 36.532L26.3083 34.444L46.6843 34.408V39.232H46.7203Z" fill="#7BB0FF"/>
<defs>
<linearGradient id="paint0_linear" x1="73" y1="73" x2="20.075" y2="7.3" gradientUnits="userSpaceOnUse">
<stop stop-color="#2563EB"/>
<stop offset="0.0001" stop-color="#2563EB"/>
<stop offset="1" stop-color="#1A237E"/>
</linearGradient>
</defs>
</svg>
