<svg width="73" height="73" viewBox="0 0 73 73" fill="none" xmlns="http://www.w3.org/2000/svg">
<rect width="73" height="73" rx="24" fill="url(#paint0_linear)"/>
<path d="M30.1 29.3667C29.4333 31.3 29.0333 33.3667 28.9 35.5333H34.6333V29.3667H30.1ZM31.1333 26.8667H34.6333V21.9333C33.2333 23.3333 32.0667 25 31.1333 26.8667ZM28.4 26.8667C29.1333 25.1667 30.0667 23.5667 31.1667 22.1333C28.3333 23.0333 25.9 24.7333 24.1333 26.8667H28.4ZM49.3333 29.3667H44.2667C44.8667 31.3 45.2333 33.3667 45.3333 35.5333H51.2C51.0333 33.3 50.3667 31.2333 49.3333 29.3667ZM42.8333 35.5333C42.7333 33.3667 42.3 31.3 41.6333 29.3667H37.1V35.5333H42.8333ZM40.6 26.8667C39.7 25 38.5 23.3333 37.1 21.9333V26.8667H40.6ZM43.3333 26.8667H47.6C45.8 24.7667 43.3667 23.0333 40.5667 22.1333C41.6667 23.5667 42.6 25.1667 43.3333 26.8667ZM22.4 44.2H27.4667C26.8667 42.2667 26.5 40.2 26.4 38.0333H20.5333C20.7333 40.2667 21.3667 42.3667 22.4 44.2ZM28.9 38.0333C29 40.2 29.4333 42.2667 30.1 44.2H34.6333V38.0333H28.9ZM31.1333 46.7C32.0667 48.5667 33.2667 50.2334 34.6333 51.6334V46.7H31.1333ZM28.4 46.7H24.1C25.9 48.8 28.3333 50.5333 31.1333 51.4333C30.0667 50.0333 29.1333 48.4333 28.4 46.7ZM44.2667 44.2H49.3333C50.3667 42.3333 51 40.2667 51.2 38.0333H45.3333C45.2333 40.2 44.8667 42.2667 44.2667 44.2ZM41.6333 44.2C42.3 42.2667 42.7 40.2 42.8333 38.0333H37.1V44.2H41.6333ZM40.6 46.7H37.1V51.6334C38.5 50.2667 39.7 48.6 40.6 46.7ZM43.3333 46.7C42.6 48.4 41.6667 50 40.5667 51.4333C43.4 50.5333 45.8333 48.8333 47.6 46.7H43.3333ZM27.4667 29.3667H22.4C21.3667 31.2333 20.7333 33.3333 20.5333 35.5333H26.4C26.5333 33.4 26.9 31.3 27.4667 29.3667ZM35.8667 54.6667C26 54.6667 18 46.6667 18 36.8C18 26.9333 26 18.9333 35.8667 18.9333C45.7333 18.9333 53.7333 26.9333 53.7333 36.8C53.7333 46.6667 45.7333 54.6667 35.8667 54.6667Z" fill="#E86AFB"/>
<defs>
<linearGradient id="paint0_linear" x1="36.5" y1="-2.94162e-06" x2="135.204" y2="153.197" gradientUnits="userSpaceOnUse">
<stop stop-color="#B20ECA"/>
<stop offset="1" stop-color="#111827"/>
</linearGradient>
</defs>
</svg>
