<svg width="71" height="71" viewBox="0 0 71 71" fill="none" xmlns="http://www.w3.org/2000/svg">
<rect width="71" height="71" rx="22" fill="url(#paint0_linear)"/>
<path fill-rule="evenodd" clip-rule="evenodd" d="M48.6688 31.9884C47.4504 25.8072 42.0217 21.1667 35.5 21.1667C30.3221 21.1667 25.825 24.1051 23.5854 28.4051C18.1925 28.9784 14 33.5472 14 39.0834C14 45.0138 18.8196 49.8334 24.75 49.8334H48.0417C52.9867 49.8334 57 45.8201 57 40.8751C57 36.1451 53.3271 32.3109 48.6688 31.9884ZM48.0417 46.2501H24.75C20.7904 46.2501 17.5833 43.043 17.5833 39.0834C17.5833 35.4105 20.3246 32.3467 23.9617 31.9705L25.8788 31.7734L26.7746 30.0713C28.4767 26.7926 31.8092 24.7501 35.5 24.7501C40.1942 24.7501 44.2433 28.0826 45.1571 32.6872L45.6946 35.3747L48.4358 35.5717C51.2308 35.7509 53.4167 38.098 53.4167 40.8751C53.4167 43.8313 50.9979 46.2501 48.0417 46.2501ZM28.1721 35.6613L31.9167 39.4059L40.1583 31.1642L42.6846 33.6905L31.9167 44.4584L25.6458 38.1876L28.1721 35.6613Z" fill="#58CFE2"/>
<defs>
<linearGradient id="paint0_linear" x1="0" y1="0" x2="56.3562" y2="71" gradientUnits="userSpaceOnUse">
<stop offset="0.0247216" stop-color="#1A237E"/>
<stop offset="1" stop-color="#17A2B8"/>
</linearGradient>
</defs>
</svg>
