<svg width="71" height="71" viewBox="0 0 71 71" fill="none" xmlns="http://www.w3.org/2000/svg">
<rect width="71" height="71" rx="22" fill="url(#paint0_linear)"/>
<path fill-rule="evenodd" clip-rule="evenodd" d="M35.4997 17.5833C25.6097 17.5833 17.583 25.6099 17.583 35.4999C17.583 45.3899 25.6097 53.4166 35.4997 53.4166C45.3897 53.4166 53.4163 45.3899 53.4163 35.4999C53.4163 25.6099 45.3897 17.5833 35.4997 17.5833ZM35.4997 49.8332C27.5984 49.8332 21.1663 43.4012 21.1663 35.4999C21.1663 27.5987 27.5984 21.1666 35.4997 21.1666C43.4009 21.1666 49.833 27.5987 49.833 35.4999C49.833 43.4012 43.4009 49.8332 35.4997 49.8332ZM31.9163 39.3878L43.7234 27.5808L46.2497 30.1249L31.9163 44.4583L24.7497 37.2916L27.2759 34.7653L31.9163 39.3878Z" fill="#58CFE2"/>
<defs>
<linearGradient id="paint0_linear" x1="0" y1="0" x2="56.3562" y2="71" gradientUnits="userSpaceOnUse">
<stop offset="0.0247216" stop-color="#1A237E"/>
<stop offset="1" stop-color="#17A2B8"/>
</linearGradient>
</defs>
</svg>
