<svg width="73" height="73" viewBox="0 0 73 73" fill="none" xmlns="http://www.w3.org/2000/svg">
<rect width="73" height="73" rx="22" fill="url(#paint0_linear)"/>
<path fill-rule="evenodd" clip-rule="evenodd" d="M42.5525 21.1666H50.0417C52.0125 21.1666 53.625 22.7791 53.625 24.7499V49.8333C53.625 51.8041 52.0125 53.4166 50.0417 53.4166H24.9583C24.7075 53.4166 24.4746 53.3987 24.2417 53.3628C23.5429 53.2195 22.9158 52.8612 22.4321 52.3774C22.1096 52.037 21.8408 51.6608 21.6617 51.2308C21.4825 50.8008 21.375 50.317 21.375 49.8333V24.7499C21.375 24.2483 21.4825 23.7824 21.6617 23.3703C21.8408 22.9403 22.1096 22.5462 22.4321 22.2237C22.9158 21.7399 23.5429 21.3816 24.2417 21.2383C24.4746 21.1845 24.7075 21.1666 24.9583 21.1666H32.4475C33.2 19.0883 35.1708 17.5833 37.5 17.5833C39.8292 17.5833 41.8 19.0883 42.5525 21.1666ZM45.7237 29.3724L48.25 31.9166L33.9167 46.2499L26.75 39.0833L29.2762 36.557L33.9167 41.1795L45.7237 29.3724ZM37.5 20.7187C38.2346 20.7187 38.8438 21.3278 38.8438 22.0624C38.8438 22.797 38.2346 23.4062 37.5 23.4062C36.7654 23.4062 36.1562 22.797 36.1562 22.0624C36.1562 21.3278 36.7654 20.7187 37.5 20.7187ZM24.9583 49.8333H50.0417V24.7499H24.9583V49.8333Z" fill="#7BB0FF"/>
<defs>
<linearGradient id="paint0_linear" x1="73" y1="73" x2="20.075" y2="7.3" gradientUnits="userSpaceOnUse">
<stop stop-color="#2563EB"/>
<stop offset="0.0001" stop-color="#2563EB"/>
<stop offset="1" stop-color="#1A237E"/>
</linearGradient>
</defs>
</svg>
