<?xml version="1.0" encoding="utf-8"?>
<!-- Generator: Adobe Illustrator 24.0.1, SVG Export Plug-In . SVG Version: 6.00 Build 0)  -->
<svg version="1.1" id="Layer_1" xmlns="http://www.w3.org/2000/svg" xmlns:xlink="http://www.w3.org/1999/xlink" x="0px" y="0px"
	 width="640.2px" height="521.8px" viewBox="0 0 640.2 521.8" style="enable-background:new 0 0 640.2 521.8;" xml:space="preserve"
	>
<style type="text/css">
	.st0{fill:none;stroke:#CCA67F;stroke-width:40;stroke-linecap:round;}
	.st1{enable-background:new    ;}
</style>
<path class="st0" d="M40,370c20-16.7,43.3-83.3,70-200C150-5,250-5,270,195s120,200,160,25c26.7-116.7,50-183.3,70-200"/>
<g class="st1">
	<path d="M9,399.1h24.8l32.3,47.5v-47.5h25V485h-25l-32.2-47.2V485H9V399.1z"/>
	<path d="M172.7,485h-22.3v-10.1c-3.3,4.1-6.7,7.1-10,8.8c-3.4,1.8-7.5,2.6-12.5,2.6c-6.6,0-11.7-2-15.4-5.9
		c-3.7-3.9-5.6-10-5.6-18.1v-39.6h24V457c0,3.9,0.7,6.7,2.2,8.3c1.4,1.6,3.5,2.5,6.1,2.5c2.9,0,5.2-1.1,7-3.3
		c1.8-2.2,2.7-6.1,2.7-11.8v-29.9h23.8V485z"/>
	<path d="M256.3,459.8h-47.8c0.4,3.8,1.5,6.7,3.1,8.6c2.3,2.7,5.3,4,9,4c2.3,0,4.6-0.6,6.7-1.8c1.3-0.7,2.7-2.1,4.2-3.9l23.5,2.2
		c-3.6,6.3-7.9,10.7-13,13.4c-5.1,2.7-12.4,4.1-21.9,4.1c-8.2,0-14.7-1.2-19.5-3.5c-4.7-2.3-8.6-6-11.7-11.1
		c-3.1-5.1-4.7-11-4.7-17.8c0-9.7,3.1-17.6,9.3-23.6c6.2-6,14.8-9,25.8-9c8.9,0,15.9,1.3,21.1,4s9.1,6.6,11.8,11.7
		c2.7,5.1,4,11.8,4,20V459.8z M232,448.4c-0.5-4.6-1.7-7.9-3.7-9.9c-2-2-4.7-3-7.9-3c-3.8,0-6.8,1.5-9.1,4.5
		c-1.4,1.9-2.4,4.7-2.8,8.4H232z"/>
	<path d="M268.1,399.1H292V485h-23.9V399.1z"/>
	<path d="M308,399.1h23.9V485H308V399.1z"/>
	<path d="M368.9,442.9l-22.8-2.4c0.9-4,2.1-7.1,3.7-9.4c1.6-2.3,4-4.3,7-5.9c2.2-1.2,5.2-2.1,9-2.8c3.8-0.7,8-1,12.4-1
		c7.1,0,12.9,0.4,17.2,1.2c4.3,0.8,7.9,2.5,10.8,5c2,1.8,3.6,4.2,4.8,7.5s1.8,6.3,1.8,9.2v27.5c0,2.9,0.2,5.2,0.6,6.9
		c0.4,1.7,1.2,3.8,2.4,6.4h-22.4c-0.9-1.6-1.5-2.8-1.8-3.7c-0.3-0.8-0.5-2.2-0.8-4c-3.1,3-6.2,5.2-9.3,6.4
		c-4.2,1.7-9.1,2.6-14.7,2.6c-7.4,0-13.1-1.7-16.9-5.2c-3.8-3.4-5.8-7.7-5.8-12.7c0-4.7,1.4-8.6,4.2-11.7c2.8-3,7.9-5.3,15.4-6.8
		c8.9-1.8,14.7-3.1,17.4-3.8c2.7-0.7,5.5-1.7,8.4-2.8c0-2.9-0.6-5-1.8-6.2c-1.2-1.2-3.3-1.8-6.4-1.8c-3.9,0-6.8,0.6-8.8,1.9
		C371.1,438.4,369.8,440.2,368.9,442.9z M389.6,455.5c-3.3,1.2-6.7,2.2-10.3,3.1c-4.8,1.3-7.9,2.6-9.2,3.8c-1.3,1.3-2,2.8-2,4.4
		c0,1.9,0.7,3.4,2,4.6c1.3,1.2,3.2,1.8,5.8,1.8c2.7,0,5.1-0.6,7.4-1.9s3.9-2.9,4.9-4.7c1-1.9,1.4-4.3,1.4-7.2V455.5z"/>
	<path d="M462.8,399.1h80.7v21.2h-27.1V485h-26.5v-64.7h-27.1V399.1z"/>
	<path d="M547,399.1h27.7l19.3,61.8l19.1-61.8h26.9L608.2,485h-28.8L547,399.1z"/>
</g>
</svg>
