<svg width="93" height="93" viewBox="0 0 93 93" fill="none" xmlns="http://www.w3.org/2000/svg">
<rect opacity="0.12" width="93" height="93" rx="22" fill="#7BB0FF"/>
<path d="M54.4744 27.0749H40.3496C42.5697 22.395 46.0996 18.6252 47.4994 17.3252C51.6593 20.9651 53.8826 25.3416 54.4744 27.0749Z" fill="#7BB0FF"/>
<path d="M54.2407 59.6241C48.7917 57.0462 42.8886 58.55 40.6182 59.6241C31.0233 39.2351 41.0624 22.7129 47.2814 17.0005C63.1545 31.9993 58.5347 51.6658 54.2407 59.6241Z" stroke="#1A237E"/>
<path d="M34.2272 65.824C29.2099 57.2885 33.829 50.1563 36.7657 47.6572C37.4824 53.1937 39.2545 57.3654 40.051 58.7591C36.7061 60.8353 34.7748 64.3342 34.2272 65.824Z" fill="#7BB0FF"/>
<path d="M58.1193 47.2246C65.4064 54.9527 62.9475 62.8443 60.8072 65.824C59.6126 62.2483 56.427 59.6242 54.9835 58.7591C57.2532 53.7993 58.0198 49.0028 58.1193 47.2246Z" fill="#7BB0FF"/>
<path d="M34.2272 65.824C29.2099 57.2885 33.829 50.1563 36.7657 47.6572C37.4824 53.1937 39.2545 57.3654 40.051 58.7591C36.7061 60.8353 34.7748 64.3342 34.2272 65.824Z" stroke="#1A237E" stroke-linejoin="round"/>
<path d="M58.1193 47.2246C65.4064 54.9527 62.9475 62.8443 60.8072 65.824C59.6126 62.2483 56.427 59.6242 54.9835 58.7591C57.2532 53.7993 58.0198 49.0028 58.1193 47.2246Z" stroke="#1A237E" stroke-linejoin="round"/>
<path d="M43.9311 66.5527L47.6585 73.2236L51.0251 66.5527C52.4679 62.6939 49.3819 61.5923 47.6585 61.5239C43.1376 61.7702 43.2899 64.9791 43.9311 66.5527Z" fill="#E86AFB"/>
<path d="M43.2451 69.2785L47.6892 78.9997L51.7033 69.2785C53.4236 63.6551 49.744 62.0499 47.6892 61.9502C42.2989 62.3091 42.4805 66.9853 43.2451 69.2785Z" stroke="#1A237E"/>
<path d="M43.306 60.3991L42.8486 58.6638C46.5075 57.596 50.573 58.2189 52.1483 58.6638L51.5385 60.3991C48.3675 59.5448 44.7289 60.0432 43.306 60.3991Z" fill="#7BB0FF"/>
<ellipse cx="47.4985" cy="38.3122" rx="4.64985" ry="4.26237" fill="#E86AFB"/>
</svg>
