<?xml version="1.0" encoding="utf-8"?>
<!-- Generator: Adobe Illustrator 24.0.1, SVG Export Plug-In . SVG Version: 6.00 Build 0)  -->
<svg version="1.1" id="Layer_1" xmlns="http://www.w3.org/2000/svg" xmlns:xlink="http://www.w3.org/1999/xlink" x="0px" y="0px"
	 width="300px" height="85px" viewBox="0 0 300 85" style="enable-background:new 0 0 300 85;" xml:space="preserve">
<style type="text/css">
	.st0{fill:#FFFFFF;}
</style>
<g transform="translate(-225 -490)">
	<g transform="matrix(1.4 0 0 1.4 327 377)">
		<path class="st0" d="M140,99l-0.3,1.4l-2.8,0.8c-0.6,0.2-1.2,0.8-1.5,1.1l-13,16l-4.8,16c-0.3,0.8,0.1,1.3,0.6,1.4l3.3,0.8
			l-0.4,1.4h-17l0.4-1.4l3.1-0.8c0.8-0.2,1.3-0.7,1.6-1.7l4.8-16l-4.1-16c-0.2-0.8-0.4-1.4-1.2-1.6l-2-0.5l0.3-1.4h14l-0.3,1.4
			l-2.4,0.7c-0.8,0.2-1,0.7-0.8,1.5l3.4,13l10-13c0.2-0.3,0.3-0.5,0.3-0.8c0-0.3-0.3-0.5-0.6-0.6l-2.7-0.7l0.4-1.4h11L140,99z"/>
		<path class="st0" d="M107,108h-1.9l-1.7-5.1c-0.3-0.9-0.8-1.2-1.7-1.2h-4.1l-9.7,33c-0.3,0.8,0,1.3,0.8,1.5l2.7,0.8l-0.4,1.4h-16
			l0.4-1.4l2.9-0.7c1.3-0.3,1.6-0.7,1.9-1.8l9.7-32h-4.8c-0.8,0-1.3,0.5-1.8,1.1l-3.4,4.7h-1.9l3-9.3h1.2c0.3,0.7,0.8,1,1.4,1h20
			c1.1,0,1.5-0.3,2-1h1.3l0.2,9.8V108z"/>
		<path class="st0" d="M77,108h-1.9l-1.8-4.8c-0.3-0.7-0.8-1-1.5-1h-7.7l-4.4,15H67c0.8,0,1.2-0.4,1.7-1.1l2-2.9h1.9l-3.5,12h-1.9
			l0.1-4.1c0-0.8-0.4-1-1.2-1h-7.2l-4.8,16h11c1.4,0,2-0.3,2.7-1.2l4.2-5.3h2l-4.3,10h-1.4c-0.4-0.8-0.9-1.1-2.3-1.1H42l0.5-1.4
			l2.9-0.8c0.8-0.2,1.2-0.7,1.5-1.7l9.4-32c0.2-0.6,0-1.1-0.5-1.3l-2.6-0.8l0.4-1.4h21c0.7,0,1.3-0.3,1.7-1h1.2l0.1,9.4L77,108z"/>
		<path class="st0" d="M140,89c-18,4-39,6.1-58,6.1c-46,0-78-6.3-92-9.5l-58,54l-4.7,0.6l17-51c-2.7,1.4-12,3.8-16,4.1
			c-1.3,0.1-1.3-0.6-0.8-1c4-2.3,5.9-4.2,7.7-8.7c8.3,2,15,0.4,22-2.3l-15,43l41-44c26,5.5,54,7.8,75,7.8c20,0,37-3.1,46-6.8
			c13,7.5,27,6.9,35,6.3c1.2-0.1,1.3,1,0.3,1.3"/>
		<path class="st0" d="M51,99l-0.4,1.4l-3.2,0.9c-0.6,0.2-0.9,0.5-1.1,1.3l-9.4,31c-0.3,0.9-0.5,1.5,0.7,1.9l2.3,0.7l-0.5,1.4h-15
			l0.5-1.4l2.2-0.7c1.2-0.4,1.6-0.8,1.9-1.8l9.3-32c0.2-0.7-0.1-1.1-0.5-1.3l-2.5-0.8l0.4-1.4h15L51,99z"/>
		<path class="st0" d="M29,109c0,5.9-4.7,11-12,11c-1.3-0.1-3.2-0.3-4.4-0.7c0,7.2,2.2,15,6.5,15c2.6,0,3.4-2.2,3.8-4.1
			c0.1-0.3,0.3-0.5,0.7-0.1c1,1,1.9,2.4,1.9,4.5c0,4.4-2.8,6.4-7,6.4c-11,0-11-15-9.4-25c0.1-0.5,0.3-0.6,0.7-0.4
			c1.4,0.8,2.9,1.3,5.1,1.3c3.5,0,6.7-2.7,6.7-7.7c0-4.9-4.1-8-10-8l-10,34c-0.1,0.3-0.1,0.6-0.1,0.8c0,0.4,0.2,0.7,0.7,0.8l2.9,0.8
			L4.5,139h-15l0.4-1.4l2.3-0.7c0.7-0.2,1-0.6,1.4-1.7l10-34c-4.3,0.9-6.4,2.5-6.4,5c0,1.4,0.3,2.1,0.8,2.7c0.2,0.2,0.2,0.5,0.2,0.8
			c0,0.6-0.5,1.1-1.9,1.1c-2.2,0-4.3-1.3-4.3-4.4c0-1.9,1.2-8.2,18-8.2c14,0,20,4.5,20,11"/>
		<path class="st0" d="M-20,106l-15,19h14l1.7-19H-20z M-12,137l-0.4,1.4h-14l0.5-1.4l2.5-0.7c0.7-0.2,1.1-0.7,1.1-1.5l0.6-6.6h-16
			l-5.2,6.3c-0.3,0.4-0.5,0.7-0.5,1c0,0.3,0.2,0.6,0.6,0.7l2.4,0.8l-0.5,1.4h-12l0.5-1.4l2.5-0.6c0.9-0.2,1.7-0.9,2.4-1.7l32-38
			l3.3-0.6l-3.1,39c-0.1,0.8,0,1.4,1,1.6l2.1,0.5L-12,137z"/>
	</g>
</g>
</svg>
