<svg width="71" height="71" viewBox="0 0 71 71" fill="none" xmlns="http://www.w3.org/2000/svg">
<rect width="71" height="71" rx="22" fill="url(#paint0_linear)"/>
<path fill-rule="evenodd" clip-rule="evenodd" d="M36.4917 23.2042C36.4917 22.5391 35.9525 22 35.2875 22C34.6225 22 34.0833 22.5391 34.0833 23.2042V24.8333H32.3206C29.3274 24.8333 27 27.3636 27 30.3597C27 32.701 28.4287 34.8294 30.621 35.5967L34.0833 36.8085V44.6667H32.9264C31.0381 44.6667 29.4083 43.0419 29.4083 40.9125C29.4083 40.2475 28.8692 39.7083 28.2042 39.7083C27.5391 39.7083 27 40.2475 27 40.9125C27 44.2599 29.5986 47.075 32.9264 47.075H34.0833V48.7042C34.0833 49.3692 34.6225 49.9083 35.2875 49.9083C35.9525 49.9083 36.4917 49.3692 36.4917 48.7042V47.075H38.2544C41.2476 47.075 43.575 44.5447 43.575 41.5486C43.575 39.2073 42.1463 37.079 39.9539 36.3116L36.4917 35.0998V27.2417H37.6486C39.5369 27.2417 41.1667 28.8664 41.1667 30.9958C41.1667 31.6609 41.7058 32.2 42.3708 32.2C43.0359 32.2 43.575 31.6609 43.575 30.9958C43.575 27.6484 40.9764 24.8333 37.6486 24.8333H36.4917V23.2042ZM34.0833 27.2417H32.3206C30.7669 27.2417 29.4083 28.5816 29.4083 30.3597C29.4083 31.7393 30.2472 32.9143 31.4166 33.3236L34.0833 34.2569V27.2417ZM36.4917 37.6514V44.6667H38.2544C39.8081 44.6667 41.1667 43.3267 41.1667 41.5486C41.1667 40.1691 40.3278 38.9941 39.1584 38.5848L36.4917 37.6514Z" fill="#58CFE2"/>
<defs>
<linearGradient id="paint0_linear" x1="0" y1="0" x2="56.3562" y2="71" gradientUnits="userSpaceOnUse">
<stop offset="0.0247216" stop-color="#1A237E"/>
<stop offset="1" stop-color="#17A2B8"/>
</linearGradient>
</defs>
</svg>
