<?xml version="1.0" encoding="utf-8"?>
<!-- Generator: Adobe Illustrator 24.0.1, SVG Export Plug-In . SVG Version: 6.00 Build 0)  -->
<svg version="1.1" id="Layer_1" xmlns="http://www.w3.org/2000/svg" xmlns:xlink="http://www.w3.org/1999/xlink" x="0px" y="0px"
	 width="820px" height="348px" viewBox="0 0 820 348" style="enable-background:new 0 0 820 348;" xml:space="preserve">
<style type="text/css">
	.st0{fill-rule:evenodd;clip-rule:evenodd;fill:#1B1C1D;}
</style>
<g id="Page-1">
	<path id="Fill-72" class="st0" d="M812.1,95H757v245.1c0,4.4,3.5,7.9,7.9,7.9h47.3c4.3,0,7.9-3.5,7.9-7.9V102.9
		C820,98.5,816.5,95,812.1,95z M788.5,0C771.1,0,757,14.1,757,31.5S771.1,63,788.5,63S820,48.9,820,31.5S805.9,0,788.5,0z M433.1,95
		h-53.3v125.6c0,34.9-29.8,63.2-64.6,63.2c-34.9,0-64.1-28.3-64.1-63.2V102.9c0-4.4-3.5-7.9-7.9-7.9H190v125.6
		c0,69.8,55.5,126.4,125.2,126.4c69.7,0,125.8-56.6,125.8-126.4V102.9C441,98.5,437.5,95,433.1,95z M662,221c0-34.8-28.2-63-63-63
		c-34.8,0-63,28.2-63,63c0,34.8,28.2,63,63,63C633.8,284,662,255.8,662,221z M725,220.6c0,69.8-56.6,126.4-126.5,126.4
		C528.6,347,472,290.4,472,220.6V0h55.1c4.4,0,7.9,3.5,7.9,7.9v90.3c0,4.4,3.8,7.9,8.1,7.9c1.1,0,2.2-0.2,3.3-0.7l0,0
		c15.9-7.2,33.5-11.2,52.1-11.2C668.4,94.2,725,150.8,725,220.6z M185.2,323.5c1.9,3.9,0.3,8.7-3.6,10.6
		c-16.8,8.3-35.7,12.9-55.8,12.9C56,347,0,290.4,0,220.6V0h55.4c4.4,0,7.9,3.5,7.9,7.9v79.2c0,4.4,3.5,7.9,7.9,7.9h79.2
		c4.4,0,7.9,3.5,7.9,7.9v47.5c0,4.4-3.5,7.9-7.9,7.9H71.2c-4.4,0-7.9,3.5-7.9,7.9v54.3c0,34.9,27.6,63.2,62.5,63.2
		c9,0,17.6-1.9,25.3-5.3c3.7-1.6,8-0.2,10,3.3l0,0l23.8,41.2l0,0L185.2,323.5L185.2,323.5z"/>
</g>
</svg>
